<?xml version="1.0" encoding="utf-8"?>
<!-- Generator: Adobe Illustrator 14.0.0, SVG Export Plug-In . SVG Version: 6.00 Build 43363)  -->
<!DOCTYPE svg PUBLIC "-//W3C//DTD SVG 1.1//EN" "http://www.w3.org/Graphics/SVG/1.1/DTD/svg11.dtd">
<svg version="1.1" id="Layer_1" xmlns="http://www.w3.org/2000/svg" xmlns:xlink="http://www.w3.org/1999/xlink" x="0px" y="0px"
	 width="800px" height="600px" viewBox="0 0 800 600" enable-background="new 0 0 800 600" xml:space="preserve">
<polyline fill="#FFFFFF" stroke="#000000" points="119.733,232.277 115.861,231.839 112.53,229.974 109.781,226.858 107.651,222.67 
	106.181,217.584 105.409,211.78 105.375,205.433 106.117,198.721 107.675,191.82 110.089,184.908 113.398,178.162 117.64,171.759 
	122.855,165.875 129.083,160.688 136.363,156.374 144.733,153.111 153.604,150.858 162.319,149.43 170.818,148.787 179.044,148.887 
	186.935,149.69 194.432,151.155 201.475,153.242 208.005,155.91 213.962,159.118 219.287,162.826 223.919,166.993 227.8,171.578 
	230.869,176.541 233.068,181.841 234.336,187.437 234.614,193.289 232.123,208.343 226.153,224.199 217.222,240.627 
	205.846,257.396 192.542,274.277 177.827,291.038 162.217,307.449 146.229,323.278 130.381,338.296 115.189,352.271 101.17,364.975 
	88.841,376.174 78.718,385.64 71.318,393.14 67.159,398.445 66.757,401.325 70.394,403.321 74.981,403.452 80.408,401.973 
	86.567,399.14 93.346,395.207 100.637,390.433 108.328,385.07 116.311,379.375 124.474,373.604 132.709,368.011 140.906,362.853 
	148.956,358.384 156.746,354.86 164.169,352.537 171.114,351.671 177.471,352.516 183.096,354.939 188.009,358.485 192.35,362.923 
	196.258,368.02 199.874,373.546 203.336,379.271 206.784,384.962 210.358,390.388 214.197,395.319 218.44,399.524 223.228,402.772 
	228.699,404.832 234.993,405.472 242.25,404.461 250.608,401.568 260.209,396.563 "/>
<polyline fill="#FFFFFF" stroke="#000000" points="359.637,152.833 346.588,156.508 334.719,165.036 324.101,177.723 
	314.803,193.875 306.895,212.798 300.447,233.799 295.529,256.184 292.211,279.26 290.564,302.332 290.656,324.708 292.558,345.692 
	296.339,364.593 302.07,380.715 309.821,393.366 319.661,401.853 331.661,405.479 346.567,403.293 359.376,394.98 370.17,381.436 
	379.036,363.557 386.056,342.239 391.314,318.382 394.897,292.88 396.887,266.631 397.368,240.532 396.426,215.479 394.145,192.369 
	390.607,172.099 385.898,155.566 380.104,143.667 373.306,137.298 365.59,137.357 "/>
<polyline fill="#FFFFFF" stroke="#000000" points="616.095,200.188 612.677,200.277 610.133,198.554 608.474,195.3 607.711,190.795 
	607.857,185.32 608.925,179.156 610.927,172.583 613.873,165.88 617.777,159.331 622.651,153.213 628.508,147.81 635.356,143.399 
	643.212,140.264 652.086,138.683 661.989,138.938 672.936,141.31 689.494,148.318 700.88,157.215 707.659,167.616 710.396,179.138 
	709.652,191.395 705.995,204.005 699.988,216.583 692.195,228.747 683.182,240.111 673.511,250.292 663.747,258.907 654.456,265.57 
	646.201,269.898 639.548,271.509 635.059,270.017 633.3,265.038 634.062,259.406 636.581,256.11 640.581,254.997 645.789,255.917 
	651.932,258.718 658.734,263.25 665.923,269.36 673.226,276.898 680.367,285.712 687.074,295.652 693.072,306.565 698.088,318.302 
	701.848,330.71 704.078,343.638 704.504,356.935 702.854,370.45 698.371,382.754 690.828,392.616 680.734,400.188 668.602,405.614 
	654.941,409.047 640.264,410.635 625.079,410.525 609.9,408.869 595.237,405.814 581.603,401.509 569.506,396.103 559.458,389.744 
	551.971,382.582 547.556,374.767 546.723,366.445 549.983,357.767 "/>
<polyline fill="#FFFFFF" stroke="#000000" points="458.514,164.852 461.23,160.556 465.517,155.545 470.933,150.251 477.04,145.104 
	483.398,140.538 489.568,136.982 495.11,134.87 499.585,134.63 500.869,138.055 501.036,146.964 500.255,160.572 498.692,178.097 
	496.516,198.752 493.894,221.755 490.992,246.32 487.979,271.663 485.021,297 482.287,321.547 479.942,344.519 478.156,365.132 
	477.097,382.602 476.93,396.143 477.822,404.971 479.942,408.304 "/>
</svg>
